<svg width="171" height="34" viewBox="0 0 171 34" fill="none" xmlns="http://www.w3.org/2000/svg">
<path d="M69.9478 29.0453C69.9478 27.6271 70.5613 26.3539 71.5336 25.4759C71.6542 25.3673 71.7278 25.2161 71.7278 25.0534C71.7278 24.8907 71.6542 24.7395 71.5336 24.6308C70.5613 23.7529 69.9478 22.4803 69.9478 21.062C69.9478 19.6431 70.5613 18.3699 71.5336 17.4926C71.6542 17.3833 71.7278 17.2328 71.7278 17.0701C71.7278 16.9067 71.6542 16.7562 71.5336 16.6475C70.5613 15.7696 69.9478 14.497 69.9478 13.0781C69.9478 11.6598 70.5613 10.3866 71.5336 9.5087C71.6542 9.40002 71.7278 9.24945 71.7278 9.08613C71.7278 8.92341 71.6542 8.77223 71.5336 8.66416C70.5613 7.78623 69.9478 6.51305 69.9478 5.09477C69.9478 3.67588 70.5613 2.4033 71.5336 1.52538C71.6542 1.4167 71.7278 1.26552 71.7278 1.1028V0.859947C71.7278 0.549697 71.4781 0.29834 71.1699 0.29834H4.3544C2.20831 0.29834 0.46875 2.04995 0.46875 4.20955V6.56102C0.46875 6.76198 0.579734 6.94109 0.749226 7.04795C1.96402 7.80991 2.77348 9.16505 2.77348 10.7121C2.77348 12.2591 1.96402 13.6136 0.749226 14.3762C0.579734 14.4824 0.46875 14.6615 0.46875 14.8631V19.277C0.46875 19.478 0.579734 19.6577 0.749226 19.7639C1.96402 20.5259 2.77348 21.8811 2.77348 23.4281C2.77348 24.9751 1.96402 26.3296 0.749226 27.0922C0.579734 27.1984 0.46875 27.3775 0.46875 27.5785V29.9306C0.46875 32.0902 2.20831 33.8412 4.3544 33.8412H71.1699C71.4781 33.8412 71.7278 33.5898 71.7278 33.2796V33.0367C71.7278 32.874 71.6542 32.7234 71.5336 32.6141C70.5613 31.7368 69.9478 30.4636 69.9478 29.0453Z" fill="#0B69FF"/>
<path d="M47.7893 12.6035C51.7763 12.6035 53.8856 14.3388 53.8856 17.6787V19.5165C53.8856 20.3197 53.5255 20.7083 52.754 20.7083H45.6287V21.7951C45.6287 23.0646 46.2717 23.6341 47.9178 23.6341C49.2043 23.6341 49.8214 23.2455 49.8214 22.4945V22.3907C49.8214 22.0804 49.9245 21.9505 50.2587 21.9505H53.2173C53.5255 21.9505 53.7058 22.132 53.7058 22.4684V22.676C53.7058 25.1356 51.6737 26.4039 47.9178 26.4039C43.8282 26.4039 41.5127 24.6693 41.5127 21.3549V17.8596C41.5127 14.442 43.8283 12.6035 47.7893 12.6035ZM15.7403 7.96874C19.9849 7.96874 22.0429 9.47081 22.0429 12.5776V13.3286C22.0429 14.9855 21.2196 16.1767 19.6507 16.8239C21.3993 17.4456 22.3258 18.6878 22.3258 20.4747V21.355C22.3258 24.514 20.2165 26.0938 15.972 26.0938H9.64466C8.74412 26.0938 8.17773 25.5237 8.17773 24.6178V9.4447C8.17773 8.53885 8.74412 7.96874 9.64466 7.96874H15.7403ZM28.7296 12.9142C29.5276 12.9142 29.9383 13.2767 29.9383 14.1309V22.2873C29.9383 22.7791 30.0934 22.9606 30.5307 22.9606H31.354C31.7394 22.9606 32.0223 23.2193 32.0223 23.6339V25.187C32.0223 25.7826 31.7135 26.0935 31.0964 26.0935H29.5529C26.6975 26.0935 25.7716 25.0061 25.7716 22.6237V15.9949H24.511C24.1256 15.9949 23.8427 15.7368 23.8427 15.3483V13.5875C23.8427 13.1729 24.1256 12.9142 24.511 12.9142H28.7296ZM36.523 7.73584C37.423 7.73584 38.0153 8.33084 38.0153 9.23791V22.2872C38.0153 22.779 38.1691 22.9606 38.6064 22.9606H39.4291C39.8151 22.9606 40.0986 23.2192 40.0986 23.6339V25.1869C40.0986 25.7832 39.7898 26.0934 39.1728 26.0934H37.6292C34.7738 26.0934 33.8479 25.006 33.8479 22.6236V9.23791C33.8479 8.33084 34.4391 7.73584 35.3396 7.73584H36.523ZM59.8525 9.39298C60.7012 9.39298 61.2416 9.93698 61.2416 10.8428V12.9144H63.325C63.7357 12.9144 64.0192 13.1992 64.0192 13.5871V15.3223C64.0192 15.7109 63.7357 15.995 63.325 15.995H61.2669V21.9505C61.2669 22.6499 61.5239 22.9086 62.2187 22.9086H63.325C63.7357 22.9086 64.0192 23.1678 64.0192 23.608V25.291C64.0192 25.8083 63.7623 26.0937 63.2737 26.0937H61.3701C58.2312 26.0937 57.1255 24.954 57.1255 22.1837V15.995H55.7877C55.3763 15.995 55.0934 15.7109 55.0934 15.3223V13.5871C55.0934 13.1992 55.3763 12.9144 55.7877 12.9144H57.1255V10.8428C57.1255 9.93698 57.666 9.39298 58.5146 9.39298H59.8525ZM15.8175 18.4292H12.4223V22.9864H15.8175C17.387 22.9864 18.1072 22.3908 18.1072 21.0958V20.3198C18.1072 19.0248 17.387 18.4292 15.8175 18.4292ZM47.7634 15.3223C46.323 15.3223 45.6287 15.9695 45.6287 17.2124V18.1965H49.9505V17.2124C49.9505 15.9695 49.2043 15.3223 47.7634 15.3223ZM15.5865 11.0755H12.4223V15.4257H15.5865C17.1294 15.4257 17.8237 14.8823 17.8237 13.6133V12.94C17.8237 11.6456 17.1294 11.0755 15.5865 11.0755ZM28.5245 7.91683C29.3726 7.91683 29.8099 8.35701 29.8099 9.18576V10.3509C29.8099 11.1535 29.3472 11.5937 28.5245 11.5937H26.6462C25.8229 11.5937 25.3602 11.1535 25.3602 10.3509V9.18576C25.3602 8.35701 25.7976 7.91683 26.6462 7.91683H28.5245Z" fill="#FFFFFE"/>
<path d="M96.1196 13.2418C96.5063 13.2418 96.7644 13.501 96.7644 13.8908V21.3908C96.7644 23.4934 97.8471 24.6354 99.8581 24.6354C101.869 24.6354 102.978 23.4934 102.978 21.3908V13.8908C102.978 13.501 103.209 13.2418 103.623 13.2418H104.473C104.86 13.2418 105.118 13.501 105.118 13.8908V23.0781L106.536 24.5055C106.948 24.9208 106.923 25.3367 106.562 25.6997L106.252 26.0106C105.892 26.3743 105.453 26.3221 105.118 25.9851L103.571 24.4278C102.823 25.7258 101.457 26.4265 99.6518 26.4265C96.5576 26.4265 94.6238 24.5832 94.6238 21.3908V13.8908C94.6238 13.501 94.8819 13.2418 95.268 13.2418H96.1196ZM140.311 12.9563C143.584 12.9563 145.312 14.3837 145.312 17.1869V23.0786L146.73 24.506C147.143 24.9206 147.117 25.3365 146.756 25.6996L146.447 26.0111C146.086 26.3741 145.648 26.3219 145.312 25.985L143.817 24.4799C143.043 25.6735 141.573 26.4264 139.743 26.4264C136.752 26.4264 135.076 24.999 135.076 22.7149V22.4556C135.076 19.9378 136.7 18.6926 140.078 18.6926C141.084 18.6926 142.09 18.8219 143.172 19.0818V17.083C143.172 15.4474 142.27 14.6696 140.336 14.6696C138.351 14.6696 137.577 15.3703 137.577 16.6939V16.8754C137.577 17.1353 137.449 17.2907 137.165 17.2907H135.978C135.695 17.2907 135.54 17.1353 135.54 16.8493V16.6939C135.54 14.3321 137.139 12.9563 140.311 12.9563ZM119.556 13.2419C119.942 13.2419 120.149 13.4234 120.149 13.7349C120.149 13.9686 120.097 14.1502 119.762 14.54L115.508 19.5228L119.916 24.4795C120.381 25.0241 120.278 25.6731 119.787 26.0368C119.349 26.3999 118.653 26.3483 118.215 25.8292L113.729 20.5865C113.445 20.2495 113.342 19.9375 113.342 19.6005C113.342 19.289 113.445 18.9776 113.729 18.64L117.776 13.8126C118.112 13.3973 118.318 13.2419 118.808 13.2419H119.556ZM132.705 13.2419C133.091 13.2419 133.298 13.4234 133.298 13.7349C133.298 13.9686 133.246 14.1502 132.91 14.54L128.657 19.5228L133.065 24.4795C133.529 25.0241 133.427 25.6731 132.936 26.0368C132.498 26.3999 131.802 26.3483 131.363 25.8292L126.877 20.5865C126.593 20.2495 126.491 19.9375 126.491 19.6005C126.491 19.289 126.593 18.9776 126.877 18.64L130.925 13.8126C131.261 13.3973 131.467 13.2419 131.956 13.2419H132.705ZM83.0483 7.9734C88.0752 7.9734 90.7056 10.153 90.7056 15.0582V19.0556C90.7056 23.9607 88.0752 26.1409 83.0483 26.1409H78.8967C78.2519 26.1409 77.8652 25.7512 77.8652 25.1027V9.01162C77.8652 8.36258 78.2519 7.9734 78.8967 7.9734H83.0483ZM111.073 7.68774C111.64 7.68774 111.975 8.05082 111.975 8.59603V25.4916C111.975 25.8808 111.743 26.1406 111.331 26.1406H110.48C110.092 26.1406 109.835 25.8808 109.835 25.4916V8.59603C109.835 8.05082 110.196 7.68774 110.738 7.68774H111.073ZM124.222 7.68774C124.789 7.68774 125.124 8.05082 125.124 8.59603V25.4916C125.124 25.8808 124.892 26.1406 124.48 26.1406H123.629C123.242 26.1406 122.983 25.8808 122.983 25.4916V8.59603C122.983 8.05082 123.345 7.68774 123.886 7.68774H124.222ZM155.805 12.9566C158.899 12.9566 160.833 14.7993 160.833 17.9916V25.4917C160.833 25.8808 160.575 26.1407 160.189 26.1407H159.338C158.951 26.1407 158.693 25.8808 158.693 25.4917V17.9916C158.693 15.8885 157.61 14.7471 155.598 14.7471C153.587 14.7471 152.479 15.8885 152.479 17.9916V25.4917C152.479 25.8808 152.247 26.1407 151.835 26.1407H150.984C150.596 26.1407 150.339 25.8808 150.339 25.4917V16.3044L148.921 14.8764C148.508 14.4617 148.534 14.0464 148.895 13.6827L149.205 13.3719C149.566 13.0082 150.004 13.0604 150.339 13.3974L151.886 14.9547C152.633 13.6572 154.001 12.9566 155.805 12.9566ZM166.865 13.2416C167.432 13.2416 167.69 13.4754 167.69 14.0467V23.0519C167.69 24.0385 167.923 24.3238 168.774 24.3238H169.753C170.062 24.3238 170.268 24.5315 170.268 24.8429V25.5697C170.268 25.9328 170.062 26.141 169.701 26.141H168.619C166.298 26.141 165.524 25.3098 165.524 23.2079V15.0066H163.643C163.333 15.0066 163.1 14.799 163.1 14.4875V13.7608C163.1 13.4493 163.333 13.2416 163.643 13.2416H166.865ZM140.233 20.1716C138.196 20.1716 137.165 20.8977 137.165 22.3512V22.6372C137.165 23.9869 138.144 24.7391 140.053 24.7391C141.909 24.7391 143.172 23.7009 143.172 22.2219V20.5869C142.115 20.3009 141.213 20.1716 140.233 20.1716ZM83.0736 9.78998H80.0572V24.3238H83.0736C86.6577 24.3238 88.4883 22.8187 88.4883 19.1333V14.981C88.4883 11.2957 86.6577 9.78998 83.0736 9.78998ZM102.076 7.89527C102.642 7.89527 102.978 8.20673 102.978 8.80416V10.1016C102.978 10.6723 102.642 10.9838 102.076 10.9838H101.611C101.044 10.9838 100.709 10.6723 100.709 10.1016V8.80416C100.709 8.20673 101.044 7.89527 101.611 7.89527H102.076ZM98.156 7.89527C98.7236 7.89527 99.0589 8.20673 99.0589 8.80416V10.1016C99.0589 10.6723 98.7236 10.9838 98.156 10.9838H97.6921C97.1251 10.9838 96.7898 10.6723 96.7898 10.1016V8.80416C96.7898 8.20673 97.1251 7.89527 97.6921 7.89527H98.156Z" fill="#070B2A"/>
</svg>
